<svg xmlns="http://www.w3.org/2000/svg" xmlns:xlink="http://www.w3.org/1999/xlink" width="200" zoomAndPan="magnify" viewBox="0 0 150 149.999998" height="200" preserveAspectRatio="xMidYMid meet" version="1.0"><path fill="#000000" d="M 150 127.191406 C 150 139.78125 139.796875 149.984375 127.207031 149.984375 L 22.796875 149.984375 C 10.210938 149.984375 0.0078125 139.78125 0.0078125 127.191406 L 0.0078125 22.785156 C 0.0078125 10.195312 10.210938 -0.0078125 22.796875 -0.0078125 L 127.207031 -0.0078125 C 139.796875 -0.0078125 150 10.195312 150 22.785156 Z M 150 127.191406 " fill-opacity="1" fill-rule="nonzero"/><path fill="#ffffff" d="M 59.316406 53.503906 C 59.316406 54.242188 59.246094 54.96875 59.101562 55.691406 C 58.957031 56.414062 58.746094 57.113281 58.464844 57.792969 C 58.183594 58.472656 57.835938 59.117188 57.429688 59.730469 C 57.019531 60.339844 56.554688 60.90625 56.035156 61.429688 C 55.515625 61.949219 54.949219 62.414062 54.335938 62.820312 C 53.726562 63.230469 53.078125 63.574219 52.398438 63.855469 C 51.71875 64.136719 51.019531 64.351562 50.296875 64.496094 C 49.574219 64.636719 48.847656 64.710938 48.113281 64.710938 C 47.375 64.710938 46.648438 64.636719 45.925781 64.496094 C 45.203125 64.351562 44.503906 64.136719 43.824219 63.855469 C 43.144531 63.574219 42.5 63.230469 41.886719 62.820312 C 41.273438 62.414062 40.707031 61.949219 40.1875 61.429688 C 39.667969 60.90625 39.203125 60.339844 38.792969 59.730469 C 38.386719 59.117188 38.039062 58.472656 37.757812 57.792969 C 37.476562 57.113281 37.265625 56.414062 37.121094 55.691406 C 36.976562 54.96875 36.90625 54.242188 36.90625 53.503906 C 36.90625 52.769531 36.976562 52.039062 37.121094 51.320312 C 37.265625 50.597656 37.476562 49.898438 37.757812 49.214844 C 38.039062 48.535156 38.386719 47.890625 38.792969 47.28125 C 39.203125 46.667969 39.667969 46.101562 40.1875 45.582031 C 40.707031 45.0625 41.273438 44.597656 41.886719 44.1875 C 42.5 43.78125 43.144531 43.433594 43.824219 43.152344 C 44.503906 42.871094 45.203125 42.660156 45.925781 42.515625 C 46.648438 42.371094 47.375 42.300781 48.113281 42.300781 C 48.847656 42.300781 49.574219 42.371094 50.296875 42.515625 C 51.019531 42.660156 51.71875 42.871094 52.398438 43.152344 C 53.078125 43.433594 53.726562 43.78125 54.335938 44.1875 C 54.949219 44.597656 55.515625 45.0625 56.035156 45.582031 C 56.554688 46.101562 57.019531 46.667969 57.429688 47.28125 C 57.835938 47.890625 58.183594 48.535156 58.464844 49.214844 C 58.746094 49.898438 58.957031 50.597656 59.101562 51.320312 C 59.246094 52.039062 59.316406 52.769531 59.316406 53.503906 Z M 59.316406 53.503906 " fill-opacity="1" fill-rule="nonzero"/><path fill="#ffffff" d="M 38.453125 72.96875 L 57.703125 72.96875 L 57.703125 134.898438 L 38.453125 134.898438 Z M 38.453125 72.96875 " fill-opacity="1" fill-rule="nonzero"/><path fill="#ffffff" d="M 69.808594 72.96875 L 88.132812 72.96875 L 88.132812 134.898438 L 69.808594 134.898438 Z M 69.808594 72.96875 " fill-opacity="1" fill-rule="nonzero"/><path fill="#ffffff" d="M 70.601562 105.941406 L 88.921875 105.941406 L 88.921875 134.898438 L 70.601562 134.898438 Z M 70.601562 105.941406 " fill-opacity="1" fill-rule="nonzero"/><path fill="#ffffff" d="M 88.921875 105.941406 C 88.921875 105.941406 88.636719 97.910156 90.753906 93.734375 C 90.753906 93.734375 92.871094 88.589844 99.53125 88.558594 C 99.53125 88.558594 107.339844 87.195312 109.578125 94.945312 C 109.578125 94.945312 110.425781 99.242188 110.425781 101.058594 C 110.425781 102.875 110.488281 134.898438 110.488281 134.898438 L 129.675781 134.898438 L 129.675781 99.425781 C 129.675781 99.425781 131.070312 79.386719 119.042969 73.898438 C 119.042969 73.898438 99.269531 65.019531 88.535156 81.324219 C 88.535156 81.324219 86.195312 82.9375 85.871094 78.417969 C 85.546875 73.898438 82.804688 85.359375 82.722656 85.601562 C 82.640625 85.84375 85.871094 108.445312 85.871094 108.445312 Z M 88.921875 105.941406 " fill-opacity="1" fill-rule="nonzero"/></svg>